<?xml version="1.0" encoding="UTF-8"?>
<svg width="15px" height="24px" viewBox="0 0 15 24" version="1.1" xmlns="http://www.w3.org/2000/svg" xmlns:xlink="http://www.w3.org/1999/xlink">
    <!-- Generator: Sketch 51.2 (57519) - http://www.bohemiancoding.com/sketch -->
    <title>smartphone</title>
    <desc>Created with Sketch.</desc>
    <defs></defs>
    <g id="New-Additions" stroke="none" stroke-width="1" fill="none" fill-rule="evenodd">
        <g id="Baiskoafu---Web---Home-Option-02" transform="translate(-1422.000000, -3393.000000)" fill="#A8A8A8" fill-rule="nonzero">
            <g id="Footer" transform="translate(0.000000, 3189.000000)">
                <g id="Group-24" transform="translate(1014.000000, 77.000000)">
                    <g id="Info">
                        <g id="smartphone" transform="translate(408.000000, 127.000000)">
                            <path d="M14.4950495,22.1319714 L14.4950495,1.86312564 C14.4950495,0.838406537 13.6591749,0 12.6266239,0 L1.86842565,0 C0.840791542,0 0,0.833503575 0,1.86312564 L0,22.1368744 C0,23.1615935 0.835874632,24 1.86842565,24 L12.6266239,24 C13.654258,23.995097 14.4950495,23.1615935 14.4950495,22.1319714 Z M1.20464285,4.3195097 L13.2854897,4.3195097 L13.2854897,17.9595506 L1.20464285,17.9595506 L1.20464285,4.3195097 Z M1.86842565,1.20122574 L12.6266239,1.20122574 C12.9904752,1.20122574 13.2904067,1.49540347 13.2904067,1.86312564 L13.2904067,3.11828396 L1.20464285,3.11828396 L1.20464285,1.86312564 C1.20464285,1.49540347 1.50457434,1.20122574 1.86842565,1.20122574 Z M1.20464285,22.1319714 L1.20464285,19.1558733 L13.2854897,19.1558733 L13.2854897,22.1319714 C13.2854897,22.4947906 12.9904752,22.7938713 12.6217069,22.7938713 L1.86842565,22.7938713 C1.50457434,22.7938713 1.20464285,22.4996936 1.20464285,22.1319714 Z" id="Shape"></path>
                            <path d="M8.43964127,20.4356436 L6.05540823,20.4356436 C5.72919526,20.4356436 5.46534653,20.7012799 5.46534653,21.029703 C5.46534653,21.3581261 5.72919526,21.6237624 6.05540823,21.6237624 L8.43964127,21.6237624 C8.76585424,21.6237624 9.02970297,21.3581261 9.02970297,21.029703 C9.02970297,20.7012799 8.76585424,20.4356436 8.43964127,20.4356436 Z" id="Shape"></path>
                        </g>
                    </g>
                </g>
            </g>
        </g>
    </g>
</svg>