<?xml version="1.0" encoding="UTF-8"?>
<svg width="32px" height="32px" viewBox="0 0 32 32" version="1.1" xmlns="http://www.w3.org/2000/svg" xmlns:xlink="http://www.w3.org/1999/xlink">
    <!-- Generator: Sketch 51.2 (57519) - http://www.bohemiancoding.com/sketch -->
    <title>Group 22</title>
    <desc>Created with Sketch.</desc>
    <defs>
        <linearGradient x1="71.7011869%" y1="15.1660957%" x2="17.5688683%" y2="91.9131968%" id="linearGradient-1">
            <stop stop-color="#782FE2" offset="0%"></stop>
            <stop stop-color="#12B7D3" offset="100%"></stop>
        </linearGradient>
        <linearGradient x1="0.804182471%" y1="63.7390087%" x2="100%" y2="63.7390077%" id="linearGradient-2">
            <stop stop-color="#782FE2" offset="0%"></stop>
            <stop stop-color="#6443CC" offset="0%"></stop>
            <stop stop-color="#12B8D3" offset="100%"></stop>
        </linearGradient>
    </defs>
    <g id="New-Additions" stroke="none" stroke-width="1" fill="none" fill-rule="evenodd">
        <g id="01" transform="translate(-9.000000, -1230.000000)">
            <g id="Group-13" transform="translate(10.000000, 1179.000000)">
                <g id="Group-22" transform="translate(0.000000, 52.000000)">
                    <g id="Group-15" fill="#FFFFFF" stroke="url(#linearGradient-1)" stroke-width="0.75">
                        <circle id="Oval-3" cx="15" cy="15" r="15"></circle>
                    </g>
                    <g id="001-cd-player" transform="translate(5.250000, 7.500000)" fill="url(#linearGradient-2)" fill-rule="nonzero">
                        <path d="M9.95930613,12.656577 C7.52707551,13.9731963 4.46112487,13.5249714 2.50319407,11.5673707 C0.0455486262,9.10972524 0.0455486262,5.11068788 2.50319407,2.65271238 C4.96050944,0.195397005 8.95987686,0.195397005 11.4175223,2.65271238 C11.5465767,2.78176682 11.7551762,2.78176682 11.8842307,2.65271238 C12.0132851,2.52365794 12.0132851,2.31505844 11.8842307,2.18600399 C9.16880643,-0.529090201 4.75190994,-0.529090201 2.03648568,2.18600399 C-0.67893858,4.90109819 -0.67893858,9.31898487 2.03648568,12.0340791 C3.36927809,13.3668715 5.16712857,14.0659439 6.97983187,14.0659439 C8.10798552,14.0659439 9.2420803,13.7949625 10.2731956,13.2371569 C10.433606,13.1500204 10.4933473,12.9500025 10.4065408,12.7899222 C10.3197344,12.6298419 10.1200466,12.5707607 9.95930613,12.656577 Z" id="Shape"></path>
                        <path d="M8.91267792,7.11020656 C8.91267792,6.03354266 8.03702208,5.15755676 6.96035818,5.15755676 C5.88369428,5.15755676 5.00803844,6.03354266 5.00803844,7.11020656 C5.00803844,8.18687046 5.88369428,9.06285636 6.96035818,9.06285636 C8.03702208,9.06285636 8.91267792,8.18687046 8.91267792,7.11020656 Z M6.96035818,8.40273134 C6.24775322,8.40273134 5.66816346,7.82281152 5.66816346,7.11020656 C5.66816346,6.3976016 6.24775322,5.81768178 6.96035818,5.81768178 C7.67296314,5.81768178 8.2525529,6.39727154 8.2525529,7.11020656 C8.2525529,7.82281152 7.67296314,8.40273134 6.96035818,8.40273134 Z" id="Shape"></path>
                        <path d="M7.6521692,10.2986104 C7.67791407,10.2986104 7.70365895,10.2956398 7.72973389,10.2896987 C8.31361447,10.148762 8.84732554,9.84906526 9.27310618,9.42295456 C9.89098319,8.8054076 10.2309476,7.98421208 10.2309476,7.11053662 C10.2309476,6.23686116 9.89098319,5.41566564 9.27310618,4.79778862 C7.99807471,3.52275715 5.92297172,3.52242709 4.64761018,4.79778862 C4.02973317,5.41566564 3.68976878,6.23686116 3.68976878,7.11053662 C3.68976878,7.98421208 4.02973317,8.8054076 4.64761018,9.42295456 C5.03312319,9.80912769 5.51270402,10.0943017 6.03453284,10.2477808 C6.21045616,10.3009208 6.39298073,10.1989315 6.44414042,10.0243284 C6.49563017,9.84972538 6.39595129,9.66588056 6.2206881,9.61472088 C5.80480934,9.49226768 5.42226689,9.26452455 5.11398851,8.95624617 C4.62087512,8.46313278 4.34956374,7.8079587 4.34956374,7.11053662 C4.34956374,6.41311454 4.62087512,5.7576104 5.11398851,5.26449701 C6.13190128,4.24658424 7.78815495,4.24658424 8.80606773,5.26449701 C9.29918112,5.7576104 9.5704925,6.41311454 9.5704925,7.11053662 C9.5704925,7.8079587 9.29918112,8.46313278 8.80606773,8.95624617 C8.46610335,9.29654062 8.04032271,9.53583594 7.57460451,9.64772713 C7.39736094,9.69063525 7.28844031,9.86886901 7.33101838,10.0461126 C7.36798538,10.1969511 7.50298095,10.2986104 7.6521692,10.2986104 Z" id="Shape"></path>
                        <path d="M19.4967924,1.68760961 C19.4967924,1.58396998 19.4482732,1.48627148 19.3654275,1.42388966 C19.2822518,1.36084772 19.1746514,1.34137403 19.0756326,1.37041954 L12.7592264,3.18906396 C12.6176296,3.22999171 12.5202611,3.35904615 12.5202611,3.50625403 L12.5202611,10.3312866 C12.403419,10.6286729 11.9825893,11.0405909 11.2930887,11.2871476 C10.8702787,11.4379862 10.4289851,11.4921164 10.0797789,11.4350156 C9.80054607,11.3891369 9.61076012,11.2795562 9.55894031,11.1343287 C9.50745056,10.9891012 9.58501525,10.7841323 9.77216069,10.5722322 C10.0055149,10.3078521 10.3821162,10.0698771 10.8052563,9.91870845 C11.1293777,9.8028565 11.4558095,9.74014463 11.7571566,9.74872625 C11.9400112,9.73552375 12.0895296,9.60547912 12.0921701,9.42361468 C12.0948106,9.24175024 11.949253,9.09124174 11.7670585,9.08860124 C11.3996989,9.08001961 10.9815097,9.1549438 10.5837844,9.29720074 C10.0510635,9.48698668 9.58699562,9.78503313 9.27772705,10.1352295 C8.92158961,10.5388959 8.80111679,10.972268 8.93776267,11.3561307 C9.07473861,11.7403234 9.44275831,11.9994225 9.97415895,12.086559 C10.101233,12.1070229 10.2349083,12.1175849 10.3728745,12.1175849 C10.7362733,12.1175849 11.1297078,12.0466214 11.5155509,11.9086553 C12.3562201,11.6089586 12.9889499,11.0630352 13.1665235,10.4837755 C13.1760953,10.4524195 13.1810463,10.4200734 13.1810463,10.3870671 L13.1810463,5.4661652 L18.0537591,4.06306948 C18.2290223,4.01256992 18.3300214,3.82971529 18.2798519,3.6544521 C18.2296824,3.47951897 18.0468278,3.37785971 17.8715646,3.42868934 L13.1813763,4.77897506 L13.1813763,3.75446104 L18.8376576,2.12593262 L18.8379876,8.51264216 C18.7211455,8.81002848 18.3003158,9.22194649 17.6108152,9.46850318 C17.1880051,9.61967181 16.7463815,9.67380206 16.3975054,9.61637119 C16.1182725,9.5704925 15.9284866,9.46091175 15.8766668,9.31535418 C15.824847,9.17045674 15.9024117,8.96515786 16.0898872,8.75358779 C16.3232414,8.48920772 16.6998427,8.25123265 17.1229828,8.10039409 C17.4362121,7.9885029 17.7537323,7.92975177 18.0435272,7.92975177 C18.0550793,7.92975177 18.0663015,7.92975177 18.079504,7.93008183 C18.2597181,7.93008183 18.406926,7.78551445 18.4095665,7.60497026 C18.412207,7.42277576 18.2666494,7.27292738 18.0844549,7.26995681 C17.709834,7.2683065 17.2998963,7.33662944 16.9011808,7.47822626 C16.3684599,7.66834226 15.904392,7.96605864 15.5951235,8.31658503 C15.238656,8.72025148 15.1181831,9.15362355 15.2551591,9.53748625 C15.392135,9.92167901 15.7601547,10.1807781 16.2912253,10.2679146 C16.7523226,10.3431688 17.3002264,10.280457 17.8329473,10.0900109 C18.6736165,9.78998407 19.3063463,9.24406068 19.4839199,8.66513104 C19.4934918,8.6337751 19.4984427,8.60142897 19.4984427,8.56842272 L19.4967924,1.68760961 Z" id="Shape"></path>
                    </g>
                </g>
            </g>
        </g>
    </g>
</svg>