<?xml version="1.0" encoding="UTF-8"?>
<svg width="32px" height="32px" viewBox="0 0 32 32" version="1.1" xmlns="http://www.w3.org/2000/svg" xmlns:xlink="http://www.w3.org/1999/xlink">
    <!-- Generator: Sketch 51.2 (57519) - http://www.bohemiancoding.com/sketch -->
    <title>Group 14</title>
    <desc>Created with Sketch.</desc>
    <defs>
        <linearGradient x1="71.7011869%" y1="15.1660957%" x2="17.5688683%" y2="91.9131968%" id="linearGradient-1">
            <stop stop-color="#782FE2" offset="0%"></stop>
            <stop stop-color="#12B7D3" offset="100%"></stop>
        </linearGradient>
        <linearGradient x1="0.804182471%" y1="63.7390087%" x2="100%" y2="63.7390077%" id="linearGradient-2">
            <stop stop-color="#782FE2" offset="0%"></stop>
            <stop stop-color="#6443CC" offset="0%"></stop>
            <stop stop-color="#12B8D3" offset="100%"></stop>
        </linearGradient>
    </defs>
    <g id="New-Additions" stroke="none" stroke-width="1" fill="none" fill-rule="evenodd">
        <g id="01" transform="translate(-9.000000, -1280.000000)">
            <g id="Group-13" transform="translate(10.000000, 1179.000000)">
                <g id="Group-14" transform="translate(0.000000, 102.000000)">
                    <circle id="Oval-3-Copy-2" stroke="url(#linearGradient-1)" stroke-width="0.75" fill="#FFFFFF" cx="15" cy="15" r="15"></circle>
                    <g id="003-list" transform="translate(9.375000, 7.500000)" fill="url(#linearGradient-2)" fill-rule="nonzero">
                        <path d="M10.5843457,0 L0.314091797,0 C0.1490625,0 0.0152929688,0.133769531 0.0152929688,0.298798828 L0.0152929688,14.7012012 C0.0152929688,14.8662305 0.1490625,15 0.314091797,15 L8.12352539,15 C8.20277344,15 8.27876953,14.9685059 8.33481445,14.9124902 L10.7956641,12.4516113 C10.8516797,12.3955957 10.8831738,12.3195996 10.8831738,12.2403223 L10.8831738,0.298798828 C10.8831738,0.133769531 10.749375,0 10.5843457,0 Z M8.42176758,13.9803809 L8.42047852,12.5372754 L9.86355469,12.5385938 L8.42176758,13.9803809 Z M10.2855762,11.941377 L8.12165039,11.9394141 C8.1215625,11.9394141 8.12147461,11.9394141 8.12138672,11.9394141 C8.04213867,11.9394141 7.96614258,11.9709082 7.91009766,12.0269238 C7.85399414,12.0830273 7.8225,12.1591406 7.82258789,12.2385059 L7.82452148,14.4024023 L0.612890625,14.4024023 L0.612890625,0.597597656 L10.2855762,0.597597656 L10.2855762,11.941377 Z" id="Shape"></path>
                        <path d="M3.63975586,2.51355469 C3.52306641,2.39686523 3.33386719,2.39686523 3.21717773,2.51358398 L2.33783203,3.39292969 L2.11948242,3.17455078 C2.00279297,3.05786133 1.81359375,3.05786133 1.6969043,3.17455078 C1.58021484,3.29124023 1.58018555,3.48043945 1.6969043,3.59712891 L2.12651367,4.02676758 C2.1825293,4.0827832 2.25855469,4.11427734 2.33780273,4.11427734 C2.41705078,4.11427734 2.49304688,4.0827832 2.5490918,4.02676758 L3.63972656,2.93613281 C3.75641602,2.81947266 3.75641602,2.63024414 3.63975586,2.51355469 Z" id="Shape"></path>
                        <path d="M8.99024414,3.10910156 L8.88547852,3.10910156 C8.72044922,3.10910156 8.58667969,3.24287109 8.58667969,3.40790039 C8.58667969,3.57292969 8.72044922,3.70669922 8.88547852,3.70669922 L8.99024414,3.70669922 C9.15527344,3.70669922 9.28904297,3.57292969 9.28904297,3.40790039 C9.28904297,3.24287109 9.15527344,3.10910156 8.99024414,3.10910156 Z" id="Shape"></path>
                        <path d="M7.92928711,3.10910156 L4.58364258,3.10910156 C4.41861328,3.10910156 4.28484375,3.24287109 4.28484375,3.40790039 C4.28484375,3.57292969 4.41861328,3.70669922 4.58364258,3.70669922 L7.92928711,3.70669922 C8.09431641,3.70669922 8.22808594,3.57292969 8.22808594,3.40790039 C8.22808594,3.24287109 8.09431641,3.10910156 7.92928711,3.10910156 Z" id="Shape"></path>
                        <path d="M3.63975586,5.40621094 C3.52306641,5.28952148 3.33386719,5.28952148 3.21717773,5.40624023 L2.33783203,6.28558594 L2.11948242,6.06720703 C2.00279297,5.95051758 1.81359375,5.95051758 1.6969043,6.06720703 C1.58021484,6.18389648 1.58018555,6.3730957 1.6969043,6.48978516 L2.12651367,6.91942383 C2.1825293,6.97543945 2.25855469,7.00693359 2.33780273,7.00693359 C2.41705078,7.00693359 2.49304688,6.97543945 2.5490918,6.91942383 L3.63972656,5.82878906 C3.75641602,5.71212891 3.75641602,5.52292969 3.63975586,5.40621094 Z" id="Shape"></path>
                        <path d="M8.99027344,6.00172852 L4.58364258,6.00172852 C4.41861328,6.00172852 4.28484375,6.13549805 4.28484375,6.30052734 C4.28484375,6.46555664 4.41861328,6.59932617 4.58364258,6.59932617 L8.99027344,6.59932617 C9.15530273,6.59932617 9.28907227,6.46555664 9.28907227,6.30052734 C9.28907227,6.13549805 9.15530273,6.00172852 8.99027344,6.00172852 Z" id="Shape"></path>
                        <path d="M3.63975586,8.28966797 C3.52306641,8.17297852 3.33386719,8.17297852 3.21717773,8.28969727 L2.33783203,9.16904297 L2.11948242,8.95066406 C2.00279297,8.83394531 1.81359375,8.83397461 1.6969043,8.95066406 C1.58021484,9.06735352 1.58018555,9.25655273 1.6969043,9.37324219 L2.12651367,9.80288086 C2.1825293,9.85889648 2.25855469,9.89039063 2.33780273,9.89039063 C2.41705078,9.89039063 2.49304688,9.85889648 2.5490918,9.80288086 L3.63972656,8.71224609 C3.75641602,8.59558594 3.75641602,8.40638672 3.63975586,8.28966797 Z" id="Shape"></path>
                        <path d="M8.99024414,8.88518555 L4.58364258,8.88518555 C4.41861328,8.88518555 4.28484375,9.01895508 4.28484375,9.18398437 C4.28484375,9.34901367 4.41861328,9.4827832 4.58364258,9.4827832 L8.99027344,9.4827832 C9.15527344,9.4827832 9.28904297,9.34901367 9.28904297,9.18398437 C9.28904297,9.01898438 9.15527344,8.88518555 8.99024414,8.88518555 Z" id="Shape"></path>
                    </g>
                </g>
            </g>
        </g>
    </g>
</svg>