<?xml version="1.0" encoding="UTF-8"?>
<svg width="32px" height="32px" viewBox="0 0 32 32" version="1.1" xmlns="http://www.w3.org/2000/svg" xmlns:xlink="http://www.w3.org/1999/xlink">
    <!-- Generator: Sketch 51.2 (57519) - http://www.bohemiancoding.com/sketch -->
    <title>Group 20</title>
    <desc>Created with Sketch.</desc>
    <defs>
        <linearGradient x1="71.7011869%" y1="15.1660957%" x2="17.5688683%" y2="91.9131968%" id="linearGradient-1">
            <stop stop-color="#782FE2" offset="0%"></stop>
            <stop stop-color="#12B7D3" offset="100%"></stop>
        </linearGradient>
        <linearGradient x1="0.804182471%" y1="63.7390087%" x2="100%" y2="63.7390077%" id="linearGradient-2">
            <stop stop-color="#782FE2" offset="0%"></stop>
            <stop stop-color="#6443CC" offset="0%"></stop>
            <stop stop-color="#12B8D3" offset="100%"></stop>
        </linearGradient>
    </defs>
    <g id="New-Additions" stroke="none" stroke-width="1" fill="none" fill-rule="evenodd">
        <g id="01" transform="translate(-9.000000, -1180.000000)">
            <g id="Group-13" transform="translate(10.000000, 1179.000000)">
                <g id="Group-20" transform="translate(0.000000, 2.000000)">
                    <circle id="Oval-3-Copy-5" stroke="url(#linearGradient-1)" stroke-width="0.75" fill="#FFFFFF" cx="15" cy="15" r="15"></circle>
                    <g id="005-microphone" transform="translate(9.000000, 7.500000)" fill="url(#linearGradient-2)" fill-rule="nonzero">
                        <path d="M10.907293,1.02320064 C10.2473885,0.363343949 9.37007962,0 8.43687898,0 C7.50367834,0 6.62636943,0.363343949 5.96651274,1.02320064 C5.30660828,1.6831051 4.94321656,2.56050955 4.94321656,3.49371019 C4.94321656,3.75396497 4.97245223,4.00958599 5.02757962,4.25765924 L0.298757962,10.0623248 C0.0162898089,10.4089968 -0.00291401274,10.9182325 0.224092357,11.2932325 C-0.130557325,11.8042357 -0.0371656051,12.5180255 0.480812102,13.0359554 C1.16593949,13.721035 2.40343949,13.8661146 3.62398089,12.6456688 C4.32960191,11.9400478 5.35261146,11.5344745 5.94286624,12.1246338 C6.36888535,12.5506529 6.38307325,13.4535191 5.40745223,14.4291879 C5.2768949,14.5597452 5.2768949,14.771465 5.4075,14.9020701 C5.47275478,14.9673248 5.55835987,15 5.6439172,15 C5.72947452,15 5.81507962,14.9673248 5.88038217,14.9020223 C7.18089172,13.601465 7.06953822,12.3054936 6.41574841,11.6517038 C6.04953822,11.2854936 5.5116879,11.1180096 4.94015924,11.1923408 C4.33203822,11.2713057 3.71335987,11.6103822 3.15105096,12.1726911 C2.19601911,13.1276274 1.3705414,12.9798726 0.953694268,12.5630255 C0.693009554,12.3023408 0.642229299,12.0103662 0.717468153,11.7928185 C0.890493631,11.9014968 1.09328025,11.9571019 1.2963535,11.9571019 C1.53482484,11.9571019 1.77329618,11.881051 1.96294586,11.7265605 L7.84299363,6.9363535 C8.03732484,6.96941083 8.23571656,6.98732484 8.43687898,6.98732484 C9.37007962,6.98732484 10.2473885,6.62393312 10.9072452,5.96407643 C11.5671497,5.30421975 11.9305892,4.42686306 11.9305892,3.49366242 C11.9305414,2.56050955 11.5671497,1.6831051 10.907293,1.02320064 Z M1.54055732,11.2081051 C1.39428344,11.3272452 1.14878981,11.3147771 1.01536624,11.181258 L0.843964968,11.0099045 C0.710541401,10.8764331 0.698025478,10.6309873 0.817261146,10.4846656 L5.2839172,5.00183121 C5.45283439,5.35433121 5.68194268,5.67950637 5.96651274,5.96407643 C6.28729299,6.28485669 6.65966561,6.53488854 7.06461783,6.70786624 L1.54055732,11.2081051 Z M10.4343153,5.49119427 C9.9008121,6.02474522 9.1914172,6.31853503 8.43683121,6.31853503 C7.68229299,6.31853503 6.97289809,6.02474522 6.4393949,5.4911465 C5.90584395,4.95764331 5.61200637,4.24824841 5.61200637,3.49371019 C5.61200637,2.7391242 5.90584395,2.02968153 6.43944268,1.49613057 C6.97294586,0.962579618 7.68234076,0.668789809 8.43687898,0.668789809 C9.19146497,0.668789809 9.90085987,0.962579618 10.4343631,1.49613057 C10.9679618,2.02968153 11.2617994,2.7391242 11.2617994,3.49371019 C11.2617516,4.24824841 10.967914,4.95764331 10.4343153,5.49119427 Z" id="Shape"></path>
                        <path d="M10.0298885,2.08915605 C9.90033439,1.95745223 9.68861465,1.95578025 9.55700637,2.08528662 C9.42535032,2.21479299 9.42363057,2.42656051 9.55313694,2.55816879 C9.81033439,2.81961783 9.95785032,3.1958121 9.95785032,3.59030255 C9.95785032,3.98488854 9.81033439,4.36117834 9.55313694,4.62267516 C9.42363057,4.75433121 9.42535032,4.96605096 9.55705414,5.09550955 C9.62216561,5.15957006 9.70686306,5.19152866 9.79151274,5.19152866 C9.87802548,5.19152866 9.96444268,5.15818471 10.0298885,5.09159236 C10.4090924,4.7060828 10.6265924,4.15886943 10.6265924,3.59025478 C10.6266401,3.02183121 10.4091401,2.47471338 10.0298885,2.08915605 Z" id="Shape"></path>
                    </g>
                </g>
            </g>
        </g>
    </g>
</svg>