<?xml version="1.0" encoding="UTF-8"?>
<svg width="20px" height="24px" viewBox="0 0 20 24" version="1.1" xmlns="http://www.w3.org/2000/svg" xmlns:xlink="http://www.w3.org/1999/xlink">
    <!-- Generator: Sketch 51.2 (57519) - http://www.bohemiancoding.com/sketch -->
    <title>placeholder</title>
    <desc>Created with Sketch.</desc>
    <defs></defs>
    <g id="New-Additions" stroke="none" stroke-width="1" fill="none" fill-rule="evenodd">
        <g id="Baiskoafu---Web---Home-Option-02" transform="translate(-1419.000000, -3268.000000)" fill="#A8A8A8" fill-rule="nonzero">
            <g id="Footer" transform="translate(0.000000, 3189.000000)">
                <g id="Group-24" transform="translate(1014.000000, 77.000000)">
                    <g id="Info">
                        <g id="placeholder" transform="translate(405.000000, 2.000000)">
                            <path d="M9.81304947,0 C4.40355463,0 0,4.31698113 0,9.62012579 C0,10.2238994 0.0564558285,10.8327044 0.174499834,11.4264151 C0.179632182,11.4616352 0.200161574,11.5672956 0.241220358,11.7484277 C0.390058452,12.3974843 0.610749418,13.036478 0.898160909,13.645283 C1.95542461,16.0855346 4.28037827,19.8339623 9.38193223,23.8490566 C9.51024094,23.9496855 9.66421138,24 9.81818182,24 C9.97215226,24 10.1261227,23.9496855 10.2544314,23.8490566 C15.350853,19.8339623 17.680939,16.0855346 18.7382027,13.645283 C19.0256142,13.036478 19.2463052,12.4025157 19.3951433,11.7484277 C19.4362021,11.5672956 19.4567315,11.4616352 19.4618638,11.4264151 C19.5747755,10.8327044 19.6363636,10.2238994 19.6363636,9.62012579 C19.6260989,4.31698113 15.2225443,0 9.81304947,0 Z M18.0863945,11.1899371 C18.0863945,11.2 18.0812622,11.2100629 18.0812622,11.2201258 C18.0761298,11.245283 18.0607328,11.3207547 18.035071,11.436478 C18.035071,11.4415094 18.035071,11.4415094 18.035071,11.4465409 C17.9067623,12.0100629 17.7168655,12.5584906 17.4653804,13.0867925 C17.4602481,13.0918239 17.4602481,13.1018868 17.4551157,13.1069182 C16.4953666,15.3358491 14.3911039,18.7371069 9.81304947,22.445283 C5.23499501,18.7371069 3.13073231,15.3358491 2.17098322,13.1069182 C2.16585088,13.1018868 2.16585088,13.0918239 2.16071853,13.0867925 C1.91436582,12.563522 1.72446894,12.0100629 1.5910279,11.4465409 C1.5910279,11.4415094 1.5910279,11.4415094 1.5910279,11.436478 C1.56023381,11.3207547 1.54996911,11.245283 1.54483676,11.2201258 C1.54483676,11.2100629 1.53970441,11.2 1.53970441,11.1849057 C1.43705745,10.6666667 1.38573397,10.1433962 1.38573397,9.61509434 C1.38573397,5.06163522 5.16827449,1.35345912 9.81304947,1.35345912 C14.4578245,1.35345912 18.240365,5.06163522 18.240365,9.61509434 C18.240365,10.1484277 18.1890415,10.6767296 18.0863945,11.1899371 Z" id="Shape"></path>
                            <path d="M9.81818182,3.63636364 C6.41156208,3.63636364 3.63636364,6.41156208 3.63636364,9.81818182 C3.63636364,13.2248016 6.41156208,16 9.81818182,16 C13.2248016,16 16,13.2248016 16,9.81818182 C16,6.41156208 13.2248016,3.63636364 9.81818182,3.63636364 Z M9.81818182,14.625131 C7.16519395,14.625131 5.01123259,12.4660776 5.01123259,9.81818182 C5.01123259,7.17028606 7.17028606,5.01123259 9.81818182,5.01123259 C12.4660776,5.01123259 14.625131,7.17028606 14.625131,9.81818182 C14.625131,12.4660776 12.4711697,14.625131 9.81818182,14.625131 Z" id="Shape"></path>
                        </g>
                    </g>
                </g>
            </g>
        </g>
    </g>
</svg>