<?xml version="1.0" encoding="UTF-8"?>
<svg width="16px" height="14px" viewBox="0 0 16 14" version="1.1" xmlns="http://www.w3.org/2000/svg" xmlns:xlink="http://www.w3.org/1999/xlink">
    <!-- Generator: Sketch 51.2 (57519) - http://www.bohemiancoding.com/sketch -->
    <title>Shape</title>
    <desc>Created with Sketch.</desc>
    <defs></defs>
    <g id="New-Additions" stroke="none" stroke-width="1" fill="none" fill-rule="evenodd">
        <g id="Baiskoafu---Web---Home-Option-02" transform="translate(-975.000000, -3273.000000)" fill="#A8A8A8" fill-rule="nonzero">
            <g id="Footer" transform="translate(0.000000, 3189.000000)">
                <path d="M989.370958,87.984981 C989.370958,87.8319332 989.368239,87.6802731 989.361489,87.5300007 C990.003123,87.0419129 990.559636,86.4311589 991,85.7321346 C990.411051,86.0023969 989.778886,86.1830013 989.114285,86.2587818 C989.792385,85.8327457 990.312432,85.151663 990.558276,84.3340862 C989.923392,84.7270147 989.221014,85.0082798 988.474011,85.1544385 C987.875642,84.4595279 987.02196,84.0169877 986.077719,84.000434 C984.264985,83.970102 982.795356,85.5335888 982.795356,87.49273 C982.795356,87.7712196 982.823713,88.0414819 982.880428,88.30203 C980.150548,88.1228133 977.731337,86.6723777 976.113074,84.4857463 C975.830763,85.0096675 975.66868,85.6218093 975.66868,86.278111 C975.66868,87.5189979 976.24816,88.6219535 977.12884,89.2727042 C976.589905,89.2479231 976.084717,89.081097 975.641682,88.8080593 L975.641682,88.8535573 C975.641682,90.5880334 976.773645,92.0411949 978.275662,92.3803486 C978.0001,92.4602923 977.70968,92.5016766 977.411151,92.5003385 C977.199102,92.4989507 976.993754,92.4755078 976.793845,92.431348 C977.211242,93.8528393 978.424246,94.8910172 979.86008,94.9254628 C978.736226,95.8767583 977.320641,96.4447898 975.783469,96.4406761 C975.518687,96.4406761 975.256673,96.4227842 975,96.3896767 C976.45346,97.4071871 978.178353,97.9999997 980.032943,97.9999997 C986.06961,98.001437 989.370958,92.6381707 989.370958,87.984981 Z" id="Shape"></path>
            </g>
        </g>
    </g>
</svg>