<?xml version="1.0" encoding="UTF-8"?>
<svg width="32px" height="32px" viewBox="0 0 32 32" version="1.1" xmlns="http://www.w3.org/2000/svg" xmlns:xlink="http://www.w3.org/1999/xlink">
    <!-- Generator: Sketch 51.2 (57519) - http://www.bohemiancoding.com/sketch -->
    <title>Group 21</title>
    <desc>Created with Sketch.</desc>
    <defs>
        <linearGradient x1="71.7011869%" y1="15.1660957%" x2="17.5688683%" y2="91.9131968%" id="linearGradient-1">
            <stop stop-color="#782FE2" offset="0%"></stop>
            <stop stop-color="#12B7D3" offset="100%"></stop>
        </linearGradient>
        <linearGradient x1="0.804182471%" y1="63.7390087%" x2="100%" y2="63.7390077%" id="linearGradient-2">
            <stop stop-color="#782FE2" offset="0%"></stop>
            <stop stop-color="#6443CC" offset="0%"></stop>
            <stop stop-color="#12B8D3" offset="100%"></stop>
        </linearGradient>
    </defs>
    <g id="New-Additions" stroke="none" stroke-width="1" fill="none" fill-rule="evenodd">
        <g id="01" transform="translate(-9.000000, -1380.000000)">
            <g id="Group-13" transform="translate(10.000000, 1179.000000)">
                <g id="Group-21" transform="translate(0.000000, 202.000000)">
                    <circle id="Oval-3-Copy-4" stroke="url(#linearGradient-1)" stroke-width="0.75" fill="#FFFFFF" cx="15" cy="15" r="15"></circle>
                    <g id="004-title" transform="translate(9.750000, 7.500000)" fill="url(#linearGradient-2)" fill-rule="nonzero">
                        <path d="M8.54165039,4.02351562 C8.48460938,3.89988281 8.3380957,3.84591797 8.21449219,3.90295898 C8.09085938,3.9600293 8.03689453,4.10651367 8.09393555,4.23014648 C8.28052734,4.63441406 8.37515625,5.06709961 8.37515625,5.51619141 C8.37515625,7.2103418 6.99688477,8.58861328 5.30276367,8.58861328 C3.60861328,8.58861328 2.2303418,7.2103418 2.2303418,5.51619141 C2.2303418,3.82207031 3.60861328,2.44376953 5.30276367,2.44376953 C6.16916016,2.44376953 6.99975586,2.8124707 7.58150391,3.45533203 C7.67291016,3.55628906 7.82874023,3.56405273 7.92978516,3.47273437 C8.03074219,3.38132812 8.03853516,3.22543945 7.94712891,3.12445312 C7.27204102,2.37849609 6.30820313,1.95067383 5.30276367,1.95067383 C3.33670898,1.95067383 1.7372168,3.55016602 1.7372168,5.5162207 C1.7372168,7.48227539 3.33670898,9.08176758 5.30276367,9.08176758 C7.26878906,9.08176758 8.86828125,7.48227539 8.86828125,5.5162207 C8.86825195,4.99526367 8.75835938,4.49302734 8.54165039,4.02351562 Z" id="Shape"></path>
                        <path d="M10.227041,5.51619141 C10.227041,5.32746094 10.3096582,5.10887695 10.3971387,4.87746094 C10.529209,4.5280957 10.6657617,4.16680664 10.5503027,3.81125977 C10.4300098,3.44083008 10.0843945,3.21568359 9.77947266,3.01696289 C9.57919922,2.88647461 9.39,2.76325195 9.28693359,2.62160156 C9.18166992,2.47696289 9.12181641,2.25667969 9.05841797,2.02347656 C8.96364258,1.67469727 8.85621094,1.27939453 8.54557617,1.05333984 C8.23807617,0.829570313 7.84848633,0.847939453 7.47178711,0.865693359 C7.22844727,0.877177734 6.99861328,0.888017578 6.82488281,0.831591797 C6.66319336,0.779091797 6.4903125,0.639345703 6.30729492,0.491396484 C6.02226563,0.261123047 5.69920898,0 5.30276367,0 C4.90628906,0 4.58323242,0.261123047 4.29820313,0.491513672 C4.11518555,0.639433594 3.94230469,0.779179687 3.78067383,0.831679687 C3.60694336,0.888105469 3.37708008,0.877236328 3.13374023,0.86578125 C2.75704102,0.847998047 2.36742188,0.829628906 2.05992188,1.05342773 C1.74928711,1.27948242 1.64188477,1.67478516 1.54708008,2.02356445 C1.48371094,2.25676758 1.42382813,2.47705078 1.31856445,2.62168945 C1.21549805,2.76331055 1.02629883,2.8865625 0.826025391,3.01705078 C0.521074219,3.21571289 0.175458984,3.44088867 0.0552246094,3.81128906 C-0.060234375,4.16683594 0.0763183594,4.528125 0.208388672,4.87751953 C0.295839844,5.10893555 0.378457031,5.32751953 0.378457031,5.51625 C0.378457031,5.70498047 0.295839844,5.92356445 0.208359375,6.15498047 C0.0762890625,6.504375 -0.0602636719,6.86566406 0.0551953125,7.22121094 C0.175488281,7.59161133 0.521103516,7.81678711 0.826025391,8.01544922 C1.02629883,8.1459375 1.21549805,8.26918945 1.31856445,8.41081055 C1.42382813,8.55544922 1.48368164,8.77576172 1.54708008,9.00893555 C1.64185547,9.35771484 1.74928711,9.75301758 2.05992188,9.97907227 C2.36739258,10.2028418 2.75698242,10.1844727 3.13371094,10.1667187 C3.37702148,10.1552051 3.60688477,10.1443945 3.78061523,10.2008203 C3.94230469,10.2533203 4.11518555,10.3930664 4.29823242,10.5410156 C4.43595703,10.6523145 4.58270508,10.7705859 4.74216797,10.8633398 L3.796875,14.2541309 L2.92447266,13.2819434 C2.86042969,13.2105762 2.76084961,13.182832 2.6690918,13.2107227 L1.42001953,13.5913477 L2.2031543,10.7829492 C2.2397168,10.6517871 2.16304688,10.5158203 2.03188477,10.4792285 C1.90066406,10.4426953 1.76472656,10.5193359 1.72816406,10.650498 L0.824208984,13.8920508 C0.800039063,13.9787695 0.825029297,14.0717871 0.889453125,14.1346875 C0.953876953,14.1976172 1.04750977,14.2203809 1.13358398,14.1941309 L2.66241211,13.728252 L3.73007813,14.9180859 C3.77742188,14.9708496 3.84445313,15 3.91359375,14.9999707 C3.93225586,14.9999707 3.95109375,14.9978613 3.96975586,14.9934961 C4.05744141,14.9729883 4.12693359,14.9063379 4.15113281,14.8196191 L5.20839844,11.0268457 C5.23942383,11.0300977 5.27074219,11.0323242 5.30270508,11.0323242 C5.33458008,11.0323242 5.36586914,11.0300684 5.39683594,11.0268457 L6.45454102,14.8196191 C6.47871094,14.9063379 6.54826172,14.9729883 6.63591797,14.9934961 C6.65455078,14.997832 6.67335938,14.9999707 6.69202148,14.9999707 C6.76119141,14.9999707 6.82822266,14.9708203 6.87556641,14.9180566 L7.94288086,13.7282227 L9.47203125,14.1940723 C9.55810547,14.220293 9.65167969,14.1975293 9.71613281,14.1346289 C9.78052734,14.0716992 9.80554688,13.9787109 9.78137695,13.8920215 L8.66182617,9.87688477 C8.88498047,9.64529297 8.9765332,9.30984375 9.05833008,9.00878906 C9.12169922,8.77558594 9.18158203,8.55530273 9.2868457,8.41066406 C9.38991211,8.26904297 9.57911133,8.14579102 9.77938477,8.01530273 C10.0843359,7.81664062 10.4299512,7.59146484 10.5501855,7.22109375 C10.6656445,6.86554687 10.5290918,6.50425781 10.3970215,6.15486328 C10.3096289,5.92350586 10.227041,5.70495117 10.227041,5.51619141 Z M9.18568359,13.5913477 L7.93623047,13.2107227 C7.84450195,13.1827148 7.74486328,13.2105469 7.68082031,13.2819434 L6.80876953,14.2541016 L5.8631543,10.8633105 C6.02270508,10.7705273 6.16948242,10.6522559 6.30726562,10.5408691 C6.4902832,10.3929492 6.66316406,10.2532324 6.82485352,10.2006738 C6.99864258,10.144248 7.22847656,10.1551172 7.47178711,10.1665723 C7.72514648,10.1785254 7.98418945,10.1904199 8.22029297,10.1290723 L9.18568359,13.5913477 Z M10.0812598,7.06889648 C10.0148145,7.27353516 9.76974609,7.43320313 9.51026367,7.60224609 C9.28139648,7.75136719 9.04470703,7.90555664 8.88820313,8.120625 C8.72956055,8.33862305 8.65479492,8.61363281 8.58254883,8.87958984 C8.50195313,9.17619141 8.42581055,9.45629883 8.25541992,9.5803418 C8.08807617,9.70207031 7.8000293,9.68850586 7.49499023,9.67412109 C7.21819336,9.66111328 6.93193359,9.64754883 6.67253906,9.73177734 C6.42410156,9.81246094 6.20712891,9.98783203 5.99727539,10.1574609 C5.75428711,10.3538672 5.52483398,10.5393164 5.30273438,10.5393164 C5.08063477,10.5393164 4.85112305,10.3538086 4.60816406,10.1574023 C4.39833984,9.98780273 4.18130859,9.81237305 3.93290039,9.73174805 C3.76930664,9.67863281 3.59501953,9.66439453 3.41917969,9.66439453 C3.31623047,9.66439453 3.21269531,9.66925781 3.11047852,9.6740918 C2.80549805,9.68850586 2.51742188,9.70207031 2.35007813,9.5803125 C2.1796875,9.45629883 2.10354492,9.17616211 2.02294922,8.87956055 C1.95070313,8.61360352 1.8759375,8.33856445 1.71729492,8.1205957 C1.56082031,7.90555664 1.32416016,7.75136719 1.09523438,7.6022168 C0.835751953,7.43317383 0.590683594,7.27347656 0.524238281,7.06883789 C0.462275391,6.87799805 0.563027344,6.61145508 0.669667969,6.32929688 C0.768955078,6.06662109 0.871611328,5.79503906 0.871611328,5.51625 C0.871611328,5.23746094 0.768955078,4.96582031 0.669697266,4.70320313 C0.563027344,4.42104492 0.462304688,4.15450195 0.524267578,3.96363281 C0.590712891,3.75899414 0.83578125,3.59932617 1.09526367,3.4302832 C1.32413086,3.28116211 1.56082031,3.12697266 1.71732422,2.91196289 C1.8759668,2.69396484 1.95073242,2.41895508 2.02297852,2.15299805 C2.10357422,1.85639648 2.1797168,1.57628906 2.35010742,1.45224609 C2.51742188,1.33048828 2.80555664,1.34405273 3.11053711,1.3584668 C3.38730469,1.37150391 3.67359375,1.38503906 3.93298828,1.30081055 C4.18142578,1.22012695 4.39839844,1.04475586 4.60825195,0.87515625 C4.85118164,0.678691406 5.08069336,0.493183594 5.30276367,0.493183594 C5.52483398,0.493183594 5.754375,0.678691406 5.99730469,0.875039063 C6.20712891,1.04466797 6.42416016,1.22006836 6.67256836,1.30072266 C6.93196289,1.38495117 7.21816406,1.37147461 7.49499023,1.35837891 C7.7999707,1.34402344 8.08807617,1.33042969 8.25539063,1.4521582 C8.42578125,1.57617188 8.50192383,1.85630859 8.58251953,2.15291016 C8.65476563,2.41886719 8.72953125,2.69390625 8.88817383,2.911875 C9.04464844,3.12691406 9.28130859,3.28110352 9.51020508,3.43019531 C9.7696875,3.59923828 10.0147559,3.75890625 10.0812305,3.96357422 C10.1431934,4.15444336 10.0424707,4.42095703 9.93580078,4.70314453 C9.83651367,4.96579102 9.73385742,5.23740234 9.73385742,5.51619141 C9.73385742,5.79500977 9.83657227,6.0665625 9.93585937,6.32923828 C10.0425,6.61142578 10.143252,6.87796875 10.0812598,7.06889648 Z" id="Shape"></path>
                    </g>
                </g>
            </g>
        </g>
    </g>
</svg>